{"title":"Bubble Gang 09JUL10 tvrip XviD (Tagalog)","uid":5679311,"size":545795197,"categoryP":"other","categoryS":"other","magnet":"?xt=urn:btih:80af00ceb23596824e0c0dbd21e22db9368c2c0e&amp;dn=Bubble+Gang+09JUL10+tvrip+XviD+%28Tagalog%29&amp;tr=udp%3A%2F%2Ftracker.openbittorrent.com%3A80&amp;tr=udp%3A%2F%2Fopen.demonii.com%3A1337&amp;tr=udp%3A%2F%2Ftracker.coppersurfer.tk%3A6969&amp;tr=udp%3A%2F%2Fexodus.desync.com%3A6969","seeders":0,"leechers":3,"uploader":null,"files":3,"time":1278721082,"description":"Bubble Gang is a sketch comedy television show in the Philippines. \nIt airs every Friday evenings by GMA Network. The show is part of the \nnetwork's GMA KiliTV block. Currently, it is now the longest-running gag \nshow in Philippine television. The TV program is known \nfor their parodies of TV commercials, politicians and current events\nGeneral\nComplete name                    : D:\\UPLOADS\\BUBLE GANG\\Bubble Gang 09JUL10 tvrip XviD (Tagalog)\\Bubble Gang.avi\nFormat                           : AVI\nFormat/Info                      : Audio Video Interleave\nFile size                        : 508 MiB\nDuration                         : 50mn 29s\nOverall bit rate                 : 1 408 Kbps\nWriting application              : VirtualDubMod 1.5.4.1 (build 2178/release)\nWriting library                  : VirtualDubMod build 2178/release\n\nVideo\nID                               : 0\nFormat                           : MPEG-4 Visual\nFormat profile                   : Advanced Simple@L5\nFormat settings, BVOP            : Yes\nFormat settings, QPel            : No\nFormat settings, GMC             : No warppoints\nFormat settings, Matrix          : Default (H.263)\nMuxing mode                      : Packed bitstream\nCodec ID                         : XVID\nCodec ID/Hint                    : XviD\nDuration                         : 50mn 29s\nBit rate                         : 1 291 Kbps\nWidth                            : 528 pixels\nHeight                           : 400 pixels\nDisplay aspect ratio             : 4:3\nFrame rate                       : 29.970 fps\nColor space                      : YUV\nChroma subsampling               : 4:2:0\nBit depth                        : 8 bits\nScan type                        : Progressive\nBits/(Pixel*Frame)               : 0.204\nStream size                      : 466 MiB (92%)\nWriting library                  : XviD 1.2.1 (UTC 2008-12-04)\n\nAudio\nID                               : 1\nFormat                           : MPEG Audio\nFormat version                   : Version 1\nFormat profile                   : Layer 3\nMode                             : Joint stereo\nMode extension                   : MS Stereo\nCodec ID                         : 55\nCodec ID/Hint                    : MP3\nDuration                         : 50mn 29s\nBit rate mode                    : Variable\nBit rate                         : 103 Kbps\nNominal bit rate                 : 128 Kbps\nChannel(s)                       : 2 channels\nSampling rate                    : 48.0 KHz\nStream size                      : 37.1 MiB (7%)\nAlignment                        : Aligned on interleaves\nInterleave, duration             : 24 ms (0.72 video frame)\nInterleave, preload duration     : 489 ms\nWriting library                  : LAME3.98r\nEncoding settings                : -m j -V 4 -q 2 -lowpass 17 --abr 128\n\n","torrent":{"xt":"urn:btih:80af00ceb23596824e0c0dbd21e22db9368c2c0e","amp;dn":"Bubble+Gang+09JUL10+tvrip+XviD+%28Tagalog%29","amp;tr":["udp%3A%2F%2Ftracker.openbittorrent.com%3A80","udp%3A%2F%2Fopen.demonii.com%3A1337","udp%3A%2F%2Ftracker.coppersurfer.tk%3A6969","udp%3A%2F%2Fexodus.desync.com%3A6969"],"infoHash":"80af00ceb23596824e0c0dbd21e22db9368c2c0e","infoHashBuffer":{"type":"Buffer","data":[128,175,0,206,178,53,150,130,78,12,13,189,33,226,45,185,54,140,44,14]},"announce":[],"urlList":[]}}